# xmcd CD database file
# Copyright (C) 1993-1998 Ti Kan
# 
# Track frame offsets:
#     150
#     16217
#     33350
#     49795
#     67507
#     84497
#     101392
#     116492
#     133310
#     151562
#     169152
#     186317
#     201912
#     219312
# 
# Disc length: 3192 seconds
# 
# Revision: 1
# Processed by: cddbd v1.4b41PL1 Copyright (c) Steve Scherf et al.
# Submitted via: DiscPlay 4.0.4
# 
DISCID=af0c760e
DTITLE=Whigfield - Whigfield II
DYEAR=1900
DGENRE=
TTITLE0=Givin' All My Love
TTITLE1=No Tears To Cry
TTITLE2=Baby Boy
TTITLE3=Tenderly
TTITLE4=What We've Done For Love
TTITLE5=Lover
TTITLE6=Gimme Gimme
TTITLE7=Whiggy Wiggle
TTITLE8=Forever On My Mind
TTITLE9=Through The Night
TTITLE10=Summer Samba
TTITLE11=Saturday Night
TTITLE12=Last Christmas
TTITLE13=Mega Ricks
EXTD=
EXTT0=
EXTT1=
EXTT2=
EXTT3=
EXTT4=
EXTT5=
EXTT6=
EXTT7=
EXTT8=
EXTT9=
EXTT10=
EXTT11=
EXTT12=
EXTT13=
PLAYORDER=
